<svg xmlns="http://www.w3.org/2000/svg" viewBox="0 0 1200 860" width="1200" height="860"><rect width="1200" height="860" fill="#F6EDDF"/><rect x="30" y="16" width="1140" height="828" rx="18" fill="#E4DCE6"/><circle cx="58" cy="46" r="3" fill="#C7BBCD" opacity="0.55"/><circle cx="104" cy="46" r="3" fill="#C7BBCD" opacity="0.55"/><circle cx="150" cy="46" r="3" fill="#C7BBCD" opacity="0.55"/><circle cx="196" cy="46" r="3" fill="#C7BBCD" opacity="0.55"/><circle cx="242" cy="46" r="3" fill="#C7BBCD" opacity="0.55"/><circle cx="288" cy="46" r="3" fill="#C7BBCD" opacity="0.55"/><circle cx="334" cy="46" r="3" fill="#C7BBCD" opacity="0.55"/><circle cx="380" cy="46" r="3" fill="#C7BBCD" opacity="0.55"/><circle cx="426" cy="46" r="3" fill="#C7BBCD" opacity="0.55"/><circle cx="472" cy="46" r="3" fill="#C7BBCD" opacity="0.55"/><circle cx="518" cy="46" r="3" fill="#C7BBCD" opacity="0.55"/><circle cx="564" cy="46" r="3" fill="#C7BBCD" opacity="0.55"/><circle cx="610" cy="46" r="3" fill="#C7BBCD" opacity="0.55"/><circle cx="656" cy="46" r="3" fill="#C7BBCD" opacity="0.55"/><circle cx="702" cy="46" r="3" fill="#C7BBCD" opacity="0.55"/><circle cx="748" cy="46" r="3" fill="#C7BBCD" opacity="0.55"/><circle cx="794" cy="46" r="3" fill="#C7BBCD" opacity="0.55"/><circle cx="840" cy="46" r="3" fill="#C7BBCD" opacity="0.55"/><circle cx="886" cy="46" r="3" fill="#C7BBCD" opacity="0.55"/><circle cx="932" cy="46" r="3" fill="#C7BBCD" opacity="0.55"/><circle cx="978" cy="46" r="3" fill="#C7BBCD" opacity="0.55"/><circle cx="1024" cy="46" r="3" fill="#C7BBCD" opacity="0.55"/><circle cx="1070" cy="46" r="3" fill="#C7BBCD" opacity="0.55"/><circle cx="1116" cy="46" r="3" fill="#C7BBCD" opacity="0.55"/><circle cx="81" cy="92" r="3" fill="#C7BBCD" opacity="0.55"/><circle cx="127" cy="92" r="3" fill="#C7BBCD" opacity="0.55"/><circle cx="173" cy="92" r="3" fill="#C7BBCD" opacity="0.55"/><circle cx="219" cy="92" r="3" fill="#C7BBCD" opacity="0.55"/><circle cx="265" cy="92" r="3" fill="#C7BBCD" opacity="0.55"/><circle cx="311" cy="92" r="3" fill="#C7BBCD" opacity="0.55"/><circle cx="357" cy="92" r="3" fill="#C7BBCD" opacity="0.55"/><circle cx="403" cy="92" r="3" fill="#C7BBCD" opacity="0.55"/><circle cx="449" cy="92" r="3" fill="#C7BBCD" opacity="0.55"/><circle cx="495" cy="92" r="3" fill="#C7BBCD" opacity="0.55"/><circle cx="541" cy="92" r="3" fill="#C7BBCD" opacity="0.55"/><circle cx="587" cy="92" r="3" fill="#C7BBCD" opacity="0.55"/><circle cx="633" cy="92" r="3" fill="#C7BBCD" opacity="0.55"/><circle cx="679" cy="92" r="3" fill="#C7BBCD" opacity="0.55"/><circle cx="725" cy="92" r="3" fill="#C7BBCD" opacity="0.55"/><circle cx="771" cy="92" r="3" fill="#C7BBCD" opacity="0.55"/><circle cx="817" cy="92" r="3" fill="#C7BBCD" opacity="0.55"/><circle cx="863" cy="92" r="3" fill="#C7BBCD" opacity="0.55"/><circle cx="909" cy="92" r="3" fill="#C7BBCD" opacity="0.55"/><circle cx="955" cy="92" r="3" fill="#C7BBCD" opacity="0.55"/><circle cx="1001" cy="92" r="3" fill="#C7BBCD" opacity="0.55"/><circle cx="1047" cy="92" r="3" fill="#C7BBCD" opacity="0.55"/><circle cx="1093" cy="92" r="3" fill="#C7BBCD" opacity="0.55"/><circle cx="1139" cy="92" r="3" fill="#C7BBCD" opacity="0.55"/><circle cx="58" cy="138" r="3" fill="#C7BBCD" opacity="0.55"/><circle cx="104" cy="138" r="3" fill="#C7BBCD" opacity="0.55"/><circle cx="150" cy="138" r="3" fill="#C7BBCD" opacity="0.55"/><circle cx="196" cy="138" r="3" fill="#C7BBCD" opacity="0.55"/><circle cx="242" cy="138" r="3" fill="#C7BBCD" opacity="0.55"/><circle cx="288" cy="138" r="3" fill="#C7BBCD" opacity="0.55"/><circle cx="334" cy="138" r="3" fill="#C7BBCD" opacity="0.55"/><circle cx="380" cy="138" r="3" fill="#C7BBCD" opacity="0.55"/><circle cx="426" cy="138" r="3" fill="#C7BBCD" opacity="0.55"/><circle cx="472" cy="138" r="3" fill="#C7BBCD" opacity="0.55"/><circle cx="518" cy="138" r="3" fill="#C7BBCD" opacity="0.55"/><circle cx="564" cy="138" r="3" fill="#C7BBCD" opacity="0.55"/><circle cx="610" cy="138" r="3" fill="#C7BBCD" opacity="0.55"/><circle cx="656" cy="138" r="3" fill="#C7BBCD" opacity="0.55"/><circle cx="702" cy="138" r="3" fill="#C7BBCD" opacity="0.55"/><circle cx="748" cy="138" r="3" fill="#C7BBCD" opacity="0.55"/><circle cx="794" cy="138" r="3" fill="#C7BBCD" opacity="0.55"/><circle cx="840" cy="138" r="3" fill="#C7BBCD" opacity="0.55"/><circle cx="886" cy="138" r="3" fill="#C7BBCD" opacity="0.55"/><circle cx="932" cy="138" r="3" fill="#C7BBCD" opacity="0.55"/><circle cx="978" cy="138" r="3" fill="#C7BBCD" opacity="0.55"/><circle cx="1024" cy="138" r="3" fill="#C7BBCD" opacity="0.55"/><circle cx="1070" cy="138" r="3" fill="#C7BBCD" opacity="0.55"/><circle cx="1116" cy="138" r="3" fill="#C7BBCD" opacity="0.55"/><circle cx="81" cy="184" r="3" fill="#C7BBCD" opacity="0.55"/><circle cx="127" cy="184" r="3" fill="#C7BBCD" opacity="0.55"/><circle cx="173" cy="184" r="3" fill="#C7BBCD" opacity="0.55"/><circle cx="219" cy="184" r="3" fill="#C7BBCD" opacity="0.55"/><circle cx="265" cy="184" r="3" fill="#C7BBCD" opacity="0.55"/><circle cx="311" cy="184" r="3" fill="#C7BBCD" opacity="0.55"/><circle cx="357" cy="184" r="3" fill="#C7BBCD" opacity="0.55"/><circle cx="403" cy="184" r="3" fill="#C7BBCD" opacity="0.55"/><circle cx="449" cy="184" r="3" fill="#C7BBCD" opacity="0.55"/><circle cx="495" cy="184" r="3" fill="#C7BBCD" opacity="0.55"/><circle cx="541" cy="184" r="3" fill="#C7BBCD" opacity="0.55"/><circle cx="587" cy="184" r="3" fill="#C7BBCD" opacity="0.55"/><circle cx="633" cy="184" r="3" fill="#C7BBCD" opacity="0.55"/><circle cx="679" cy="184" r="3" fill="#C7BBCD" opacity="0.55"/><circle cx="725" cy="184" r="3" fill="#C7BBCD" opacity="0.55"/><circle cx="771" cy="184" r="3" fill="#C7BBCD" opacity="0.55"/><circle cx="817" cy="184" r="3" fill="#C7BBCD" opacity="0.55"/><circle cx="863" cy="184" r="3" fill="#C7BBCD" opacity="0.55"/><circle cx="909" cy="184" r="3" fill="#C7BBCD" opacity="0.55"/><circle cx="955" cy="184" r="3" fill="#C7BBCD" opacity="0.55"/><circle cx="1001" cy="184" r="3" fill="#C7BBCD" opacity="0.55"/><circle cx="1047" cy="184" r="3" fill="#C7BBCD" opacity="0.55"/><circle cx="1093" cy="184" r="3" fill="#C7BBCD" opacity="0.55"/><circle cx="1139" cy="184" r="3" fill="#C7BBCD" opacity="0.55"/><circle cx="58" cy="230" r="3" fill="#C7BBCD" opacity="0.55"/><circle cx="104" cy="230" r="3" fill="#C7BBCD" opacity="0.55"/><circle cx="150" cy="230" r="3" fill="#C7BBCD" opacity="0.55"/><circle cx="196" cy="230" r="3" fill="#C7BBCD" opacity="0.55"/><circle cx="242" cy="230" r="3" fill="#C7BBCD" opacity="0.55"/><circle cx="288" cy="230" r="3" fill="#C7BBCD" opacity="0.55"/><circle cx="334" cy="230" r="3" fill="#C7BBCD" opacity="0.55"/><circle cx="380" cy="230" r="3" fill="#C7BBCD" opacity="0.55"/><circle cx="426" cy="230" r="3" fill="#C7BBCD" opacity="0.55"/><circle cx="472" cy="230" r="3" fill="#C7BBCD" opacity="0.55"/><circle cx="518" cy="230" r="3" fill="#C7BBCD" opacity="0.55"/><circle cx="564" cy="230" r="3" fill="#C7BBCD" opacity="0.55"/><circle cx="610" cy="230" r="3" fill="#C7BBCD" opacity="0.55"/><circle cx="656" cy="230" r="3" fill="#C7BBCD" opacity="0.55"/><circle cx="702" cy="230" r="3" fill="#C7BBCD" opacity="0.55"/><circle cx="748" cy="230" r="3" fill="#C7BBCD" opacity="0.55"/><circle cx="794" cy="230" r="3" fill="#C7BBCD" opacity="0.55"/><circle cx="840" cy="230" r="3" fill="#C7BBCD" opacity="0.55"/><circle cx="886" cy="230" r="3" fill="#C7BBCD" opacity="0.55"/><circle cx="932" cy="230" r="3" fill="#C7BBCD" opacity="0.55"/><circle cx="978" cy="230" r="3" fill="#C7BBCD" opacity="0.55"/><circle cx="1024" cy="230" r="3" fill="#C7BBCD" opacity="0.55"/><circle cx="1070" cy="230" r="3" fill="#C7BBCD" opacity="0.55"/><circle cx="1116" cy="230" r="3" fill="#C7BBCD" opacity="0.55"/><circle cx="81" cy="276" r="3" fill="#C7BBCD" opacity="0.55"/><circle cx="127" cy="276" r="3" fill="#C7BBCD" opacity="0.55"/><circle cx="173" cy="276" r="3" fill="#C7BBCD" opacity="0.55"/><circle cx="219" cy="276" r="3" fill="#C7BBCD" opacity="0.55"/><circle cx="265" cy="276" r="3" fill="#C7BBCD" opacity="0.55"/><circle cx="311" cy="276" r="3" fill="#C7BBCD" opacity="0.55"/><circle cx="357" cy="276" r="3" fill="#C7BBCD" opacity="0.55"/><circle cx="403" cy="276" r="3" fill="#C7BBCD" opacity="0.55"/><circle cx="449" cy="276" r="3" fill="#C7BBCD" opacity="0.55"/><circle cx="495" cy="276" r="3" fill="#C7BBCD" opacity="0.55"/><circle cx="541" cy="276" r="3" fill="#C7BBCD" opacity="0.55"/><circle cx="587" cy="276" r="3" fill="#C7BBCD" opacity="0.55"/><circle cx="633" cy="276" r="3" fill="#C7BBCD" opacity="0.55"/><circle cx="679" cy="276" r="3" fill="#C7BBCD" opacity="0.55"/><circle cx="725" cy="276" r="3" fill="#C7BBCD" opacity="0.55"/><circle cx="771" cy="276" r="3" fill="#C7BBCD" opacity="0.55"/><circle cx="817" cy="276" r="3" fill="#C7BBCD" opacity="0.55"/><circle cx="863" cy="276" r="3" fill="#C7BBCD" opacity="0.55"/><circle cx="909" cy="276" r="3" fill="#C7BBCD" opacity="0.55"/><circle cx="955" cy="276" r="3" fill="#C7BBCD" opacity="0.55"/><circle cx="1001" cy="276" r="3" fill="#C7BBCD" opacity="0.55"/><circle cx="1047" cy="276" r="3" fill="#C7BBCD" opacity="0.55"/><circle cx="1093" cy="276" r="3" fill="#C7BBCD" opacity="0.55"/><circle cx="1139" cy="276" r="3" fill="#C7BBCD" opacity="0.55"/><circle cx="58" cy="322" r="3" fill="#C7BBCD" opacity="0.55"/><circle cx="104" cy="322" r="3" fill="#C7BBCD" opacity="0.55"/><circle cx="150" cy="322" r="3" fill="#C7BBCD" opacity="0.55"/><circle cx="196" cy="322" r="3" fill="#C7BBCD" opacity="0.55"/><circle cx="242" cy="322" r="3" fill="#C7BBCD" opacity="0.55"/><circle cx="288" cy="322" r="3" fill="#C7BBCD" opacity="0.55"/><circle cx="334" cy="322" r="3" fill="#C7BBCD" opacity="0.55"/><circle cx="380" cy="322" r="3" fill="#C7BBCD" opacity="0.55"/><circle cx="426" cy="322" r="3" fill="#C7BBCD" opacity="0.55"/><circle cx="472" cy="322" r="3" fill="#C7BBCD" opacity="0.55"/><circle cx="518" cy="322" r="3" fill="#C7BBCD" opacity="0.55"/><circle cx="564" cy="322" r="3" fill="#C7BBCD" opacity="0.55"/><circle cx="610" cy="322" r="3" fill="#C7BBCD" opacity="0.55"/><circle cx="656" cy="322" r="3" fill="#C7BBCD" opacity="0.55"/><circle cx="702" cy="322" r="3" fill="#C7BBCD" opacity="0.55"/><circle cx="748" cy="322" r="3" fill="#C7BBCD" opacity="0.55"/><circle cx="794" cy="322" r="3" fill="#C7BBCD" opacity="0.55"/><circle cx="840" cy="322" r="3" fill="#C7BBCD" opacity="0.55"/><circle cx="886" cy="322" r="3" fill="#C7BBCD" opacity="0.55"/><circle cx="932" cy="322" r="3" fill="#C7BBCD" opacity="0.55"/><circle cx="978" cy="322" r="3" fill="#C7BBCD" opacity="0.55"/><circle cx="1024" cy="322" r="3" fill="#C7BBCD" opacity="0.55"/><circle cx="1070" cy="322" r="3" fill="#C7BBCD" opacity="0.55"/><circle cx="1116" cy="322" r="3" fill="#C7BBCD" opacity="0.55"/><circle cx="81" cy="368" r="3" fill="#C7BBCD" opacity="0.55"/><circle cx="127" cy="368" r="3" fill="#C7BBCD" opacity="0.55"/><circle cx="173" cy="368" r="3" fill="#C7BBCD" opacity="0.55"/><circle cx="219" cy="368" r="3" fill="#C7BBCD" opacity="0.55"/><circle cx="265" cy="368" r="3" fill="#C7BBCD" opacity="0.55"/><circle cx="311" cy="368" r="3" fill="#C7BBCD" opacity="0.55"/><circle cx="357" cy="368" r="3" fill="#C7BBCD" opacity="0.55"/><circle cx="403" cy="368" r="3" fill="#C7BBCD" opacity="0.55"/><circle cx="449" cy="368" r="3" fill="#C7BBCD" opacity="0.55"/><circle cx="495" cy="368" r="3" fill="#C7BBCD" opacity="0.55"/><circle cx="541" cy="368" r="3" fill="#C7BBCD" opacity="0.55"/><circle cx="587" cy="368" r="3" fill="#C7BBCD" opacity="0.55"/><circle cx="633" cy="368" r="3" fill="#C7BBCD" opacity="0.55"/><circle cx="679" cy="368" r="3" fill="#C7BBCD" opacity="0.55"/><circle cx="725" cy="368" r="3" fill="#C7BBCD" opacity="0.55"/><circle cx="771" cy="368" r="3" fill="#C7BBCD" opacity="0.55"/><circle cx="817" cy="368" r="3" fill="#C7BBCD" opacity="0.55"/><circle cx="863" cy="368" r="3" fill="#C7BBCD" opacity="0.55"/><circle cx="909" cy="368" r="3" fill="#C7BBCD" opacity="0.55"/><circle cx="955" cy="368" r="3" fill="#C7BBCD" opacity="0.55"/><circle cx="1001" cy="368" r="3" fill="#C7BBCD" opacity="0.55"/><circle cx="1047" cy="368" r="3" fill="#C7BBCD" opacity="0.55"/><circle cx="1093" cy="368" r="3" fill="#C7BBCD" opacity="0.55"/><circle cx="1139" cy="368" r="3" fill="#C7BBCD" opacity="0.55"/><circle cx="58" cy="414" r="3" fill="#C7BBCD" opacity="0.55"/><circle cx="104" cy="414" r="3" fill="#C7BBCD" opacity="0.55"/><circle cx="150" cy="414" r="3" fill="#C7BBCD" opacity="0.55"/><circle cx="196" cy="414" r="3" fill="#C7BBCD" opacity="0.55"/><circle cx="242" cy="414" r="3" fill="#C7BBCD" opacity="0.55"/><circle cx="288" cy="414" r="3" fill="#C7BBCD" opacity="0.55"/><circle cx="334" cy="414" r="3" fill="#C7BBCD" opacity="0.55"/><circle cx="380" cy="414" r="3" fill="#C7BBCD" opacity="0.55"/><circle cx="426" cy="414" r="3" fill="#C7BBCD" opacity="0.55"/><circle cx="472" cy="414" r="3" fill="#C7BBCD" opacity="0.55"/><circle cx="518" cy="414" r="3" fill="#C7BBCD" opacity="0.55"/><circle cx="564" cy="414" r="3" fill="#C7BBCD" opacity="0.55"/><circle cx="610" cy="414" r="3" fill="#C7BBCD" opacity="0.55"/><circle cx="656" cy="414" r="3" fill="#C7BBCD" opacity="0.55"/><circle cx="702" cy="414" r="3" fill="#C7BBCD" opacity="0.55"/><circle cx="748" cy="414" r="3" fill="#C7BBCD" opacity="0.55"/><circle cx="794" cy="414" r="3" fill="#C7BBCD" opacity="0.55"/><circle cx="840" cy="414" r="3" fill="#C7BBCD" opacity="0.55"/><circle cx="886" cy="414" r="3" fill="#C7BBCD" opacity="0.55"/><circle cx="932" cy="414" r="3" fill="#C7BBCD" opacity="0.55"/><circle cx="978" cy="414" r="3" fill="#C7BBCD" opacity="0.55"/><circle cx="1024" cy="414" r="3" fill="#C7BBCD" opacity="0.55"/><circle cx="1070" cy="414" r="3" fill="#C7BBCD" opacity="0.55"/><circle cx="1116" cy="414" r="3" fill="#C7BBCD" opacity="0.55"/><circle cx="81" cy="460" r="3" fill="#C7BBCD" opacity="0.55"/><circle cx="127" cy="460" r="3" fill="#C7BBCD" opacity="0.55"/><circle cx="173" cy="460" r="3" fill="#C7BBCD" opacity="0.55"/><circle cx="219" cy="460" r="3" fill="#C7BBCD" opacity="0.55"/><circle cx="265" cy="460" r="3" fill="#C7BBCD" opacity="0.55"/><circle cx="311" cy="460" r="3" fill="#C7BBCD" opacity="0.55"/><circle cx="357" cy="460" r="3" fill="#C7BBCD" opacity="0.55"/><circle cx="403" cy="460" r="3" fill="#C7BBCD" opacity="0.55"/><circle cx="449" cy="460" r="3" fill="#C7BBCD" opacity="0.55"/><circle cx="495" cy="460" r="3" fill="#C7BBCD" opacity="0.55"/><circle cx="541" cy="460" r="3" fill="#C7BBCD" opacity="0.55"/><circle cx="587" cy="460" r="3" fill="#C7BBCD" opacity="0.55"/><circle cx="633" cy="460" r="3" fill="#C7BBCD" opacity="0.55"/><circle cx="679" cy="460" r="3" fill="#C7BBCD" opacity="0.55"/><circle cx="725" cy="460" r="3" fill="#C7BBCD" opacity="0.55"/><circle cx="771" cy="460" r="3" fill="#C7BBCD" opacity="0.55"/><circle cx="817" cy="460" r="3" fill="#C7BBCD" opacity="0.55"/><circle cx="863" cy="460" r="3" fill="#C7BBCD" opacity="0.55"/><circle cx="909" cy="460" r="3" fill="#C7BBCD" opacity="0.55"/><circle cx="955" cy="460" r="3" fill="#C7BBCD" opacity="0.55"/><circle cx="1001" cy="460" r="3" fill="#C7BBCD" opacity="0.55"/><circle cx="1047" cy="460" r="3" fill="#C7BBCD" opacity="0.55"/><circle cx="1093" cy="460" r="3" fill="#C7BBCD" opacity="0.55"/><circle cx="1139" cy="460" r="3" fill="#C7BBCD" opacity="0.55"/><circle cx="58" cy="506" r="3" fill="#C7BBCD" opacity="0.55"/><circle cx="104" cy="506" r="3" fill="#C7BBCD" opacity="0.55"/><circle cx="150" cy="506" r="3" fill="#C7BBCD" opacity="0.55"/><circle cx="196" cy="506" r="3" fill="#C7BBCD" opacity="0.55"/><circle cx="242" cy="506" r="3" fill="#C7BBCD" opacity="0.55"/><circle cx="288" cy="506" r="3" fill="#C7BBCD" opacity="0.55"/><circle cx="334" cy="506" r="3" fill="#C7BBCD" opacity="0.55"/><circle cx="380" cy="506" r="3" fill="#C7BBCD" opacity="0.55"/><circle cx="426" cy="506" r="3" fill="#C7BBCD" opacity="0.55"/><circle cx="472" cy="506" r="3" fill="#C7BBCD" opacity="0.55"/><circle cx="518" cy="506" r="3" fill="#C7BBCD" opacity="0.55"/><circle cx="564" cy="506" r="3" fill="#C7BBCD" opacity="0.55"/><circle cx="610" cy="506" r="3" fill="#C7BBCD" opacity="0.55"/><circle cx="656" cy="506" r="3" fill="#C7BBCD" opacity="0.55"/><circle cx="702" cy="506" r="3" fill="#C7BBCD" opacity="0.55"/><circle cx="748" cy="506" r="3" fill="#C7BBCD" opacity="0.55"/><circle cx="794" cy="506" r="3" fill="#C7BBCD" opacity="0.55"/><circle cx="840" cy="506" r="3" fill="#C7BBCD" opacity="0.55"/><circle cx="886" cy="506" r="3" fill="#C7BBCD" opacity="0.55"/><circle cx="932" cy="506" r="3" fill="#C7BBCD" opacity="0.55"/><circle cx="978" cy="506" r="3" fill="#C7BBCD" opacity="0.55"/><circle cx="1024" cy="506" r="3" fill="#C7BBCD" opacity="0.55"/><circle cx="1070" cy="506" r="3" fill="#C7BBCD" opacity="0.55"/><circle cx="1116" cy="506" r="3" fill="#C7BBCD" opacity="0.55"/><circle cx="81" cy="552" r="3" fill="#C7BBCD" opacity="0.55"/><circle cx="127" cy="552" r="3" fill="#C7BBCD" opacity="0.55"/><circle cx="173" cy="552" r="3" fill="#C7BBCD" opacity="0.55"/><circle cx="219" cy="552" r="3" fill="#C7BBCD" opacity="0.55"/><circle cx="265" cy="552" r="3" fill="#C7BBCD" opacity="0.55"/><circle cx="311" cy="552" r="3" fill="#C7BBCD" opacity="0.55"/><circle cx="357" cy="552" r="3" fill="#C7BBCD" opacity="0.55"/><circle cx="403" cy="552" r="3" fill="#C7BBCD" opacity="0.55"/><circle cx="449" cy="552" r="3" fill="#C7BBCD" opacity="0.55"/><circle cx="495" cy="552" r="3" fill="#C7BBCD" opacity="0.55"/><circle cx="541" cy="552" r="3" fill="#C7BBCD" opacity="0.55"/><circle cx="587" cy="552" r="3" fill="#C7BBCD" opacity="0.55"/><circle cx="633" cy="552" r="3" fill="#C7BBCD" opacity="0.55"/><circle cx="679" cy="552" r="3" fill="#C7BBCD" opacity="0.55"/><circle cx="725" cy="552" r="3" fill="#C7BBCD" opacity="0.55"/><circle cx="771" cy="552" r="3" fill="#C7BBCD" opacity="0.55"/><circle cx="817" cy="552" r="3" fill="#C7BBCD" opacity="0.55"/><circle cx="863" cy="552" r="3" fill="#C7BBCD" opacity="0.55"/><circle cx="909" cy="552" r="3" fill="#C7BBCD" opacity="0.55"/><circle cx="955" cy="552" r="3" fill="#C7BBCD" opacity="0.55"/><circle cx="1001" cy="552" r="3" fill="#C7BBCD" opacity="0.55"/><circle cx="1047" cy="552" r="3" fill="#C7BBCD" opacity="0.55"/><circle cx="1093" cy="552" r="3" fill="#C7BBCD" opacity="0.55"/><circle cx="1139" cy="552" r="3" fill="#C7BBCD" opacity="0.55"/><circle cx="58" cy="598" r="3" fill="#C7BBCD" opacity="0.55"/><circle cx="104" cy="598" r="3" fill="#C7BBCD" opacity="0.55"/><circle cx="150" cy="598" r="3" fill="#C7BBCD" opacity="0.55"/><circle cx="196" cy="598" r="3" fill="#C7BBCD" opacity="0.55"/><circle cx="242" cy="598" r="3" fill="#C7BBCD" opacity="0.55"/><circle cx="288" cy="598" r="3" fill="#C7BBCD" opacity="0.55"/><circle cx="334" cy="598" r="3" fill="#C7BBCD" opacity="0.55"/><circle cx="380" cy="598" r="3" fill="#C7BBCD" opacity="0.55"/><circle cx="426" cy="598" r="3" fill="#C7BBCD" opacity="0.55"/><circle cx="472" cy="598" r="3" fill="#C7BBCD" opacity="0.55"/><circle cx="518" cy="598" r="3" fill="#C7BBCD" opacity="0.55"/><circle cx="564" cy="598" r="3" fill="#C7BBCD" opacity="0.55"/><circle cx="610" cy="598" r="3" fill="#C7BBCD" opacity="0.55"/><circle cx="656" cy="598" r="3" fill="#C7BBCD" opacity="0.55"/><circle cx="702" cy="598" r="3" fill="#C7BBCD" opacity="0.55"/><circle cx="748" cy="598" r="3" fill="#C7BBCD" opacity="0.55"/><circle cx="794" cy="598" r="3" fill="#C7BBCD" opacity="0.55"/><circle cx="840" cy="598" r="3" fill="#C7BBCD" opacity="0.55"/><circle cx="886" cy="598" r="3" fill="#C7BBCD" opacity="0.55"/><circle cx="932" cy="598" r="3" fill="#C7BBCD" opacity="0.55"/><circle cx="978" cy="598" r="3" fill="#C7BBCD" opacity="0.55"/><circle cx="1024" cy="598" r="3" fill="#C7BBCD" opacity="0.55"/><circle cx="1070" cy="598" r="3" fill="#C7BBCD" opacity="0.55"/><circle cx="1116" cy="598" r="3" fill="#C7BBCD" opacity="0.55"/><circle cx="81" cy="644" r="3" fill="#C7BBCD" opacity="0.55"/><circle cx="127" cy="644" r="3" fill="#C7BBCD" opacity="0.55"/><circle cx="173" cy="644" r="3" fill="#C7BBCD" opacity="0.55"/><circle cx="219" cy="644" r="3" fill="#C7BBCD" opacity="0.55"/><circle cx="265" cy="644" r="3" fill="#C7BBCD" opacity="0.55"/><circle cx="311" cy="644" r="3" fill="#C7BBCD" opacity="0.55"/><circle cx="357" cy="644" r="3" fill="#C7BBCD" opacity="0.55"/><circle cx="403" cy="644" r="3" fill="#C7BBCD" opacity="0.55"/><circle cx="449" cy="644" r="3" fill="#C7BBCD" opacity="0.55"/><circle cx="495" cy="644" r="3" fill="#C7BBCD" opacity="0.55"/><circle cx="541" cy="644" r="3" fill="#C7BBCD" opacity="0.55"/><circle cx="587" cy="644" r="3" fill="#C7BBCD" opacity="0.55"/><circle cx="633" cy="644" r="3" fill="#C7BBCD" opacity="0.55"/><circle cx="679" cy="644" r="3" fill="#C7BBCD" opacity="0.55"/><circle cx="725" cy="644" r="3" fill="#C7BBCD" opacity="0.55"/><circle cx="771" cy="644" r="3" fill="#C7BBCD" opacity="0.55"/><circle cx="817" cy="644" r="3" fill="#C7BBCD" opacity="0.55"/><circle cx="863" cy="644" r="3" fill="#C7BBCD" opacity="0.55"/><circle cx="909" cy="644" r="3" fill="#C7BBCD" opacity="0.55"/><circle cx="955" cy="644" r="3" fill="#C7BBCD" opacity="0.55"/><circle cx="1001" cy="644" r="3" fill="#C7BBCD" opacity="0.55"/><circle cx="1047" cy="644" r="3" fill="#C7BBCD" opacity="0.55"/><circle cx="1093" cy="644" r="3" fill="#C7BBCD" opacity="0.55"/><circle cx="1139" cy="644" r="3" fill="#C7BBCD" opacity="0.55"/><rect x="30" y="661.84" width="1140" height="182.16" rx="0" fill="#A2795A"/><line x1="30" y1="663.84" x2="30" y2="742.64" stroke="#3F332C" stroke-width="1.3" stroke-linecap="round" opacity="0.20"/><line x1="104" y1="663.84" x2="104" y2="742.64" stroke="#3F332C" stroke-width="1.3" stroke-linecap="round" opacity="0.20"/><line x1="178" y1="663.84" x2="178" y2="742.64" stroke="#3F332C" stroke-width="1.3" stroke-linecap="round" opacity="0.20"/><line x1="252" y1="663.84" x2="252" y2="742.64" stroke="#3F332C" stroke-width="1.3" stroke-linecap="round" opacity="0.20"/><line x1="326" y1="663.84" x2="326" y2="742.64" stroke="#3F332C" stroke-width="1.3" stroke-linecap="round" opacity="0.20"/><line x1="400" y1="663.84" x2="400" y2="742.64" stroke="#3F332C" stroke-width="1.3" stroke-linecap="round" opacity="0.20"/><line x1="474" y1="663.84" x2="474" y2="742.64" stroke="#3F332C" stroke-width="1.3" stroke-linecap="round" opacity="0.20"/><line x1="548" y1="663.84" x2="548" y2="742.64" stroke="#3F332C" stroke-width="1.3" stroke-linecap="round" opacity="0.20"/><line x1="622" y1="663.84" x2="622" y2="742.64" stroke="#3F332C" stroke-width="1.3" stroke-linecap="round" opacity="0.20"/><line x1="696" y1="663.84" x2="696" y2="742.64" stroke="#3F332C" stroke-width="1.3" stroke-linecap="round" opacity="0.20"/><line x1="770" y1="663.84" x2="770" y2="742.64" stroke="#3F332C" stroke-width="1.3" stroke-linecap="round" opacity="0.20"/><line x1="844" y1="663.84" x2="844" y2="742.64" stroke="#3F332C" stroke-width="1.3" stroke-linecap="round" opacity="0.20"/><line x1="918" y1="663.84" x2="918" y2="742.64" stroke="#3F332C" stroke-width="1.3" stroke-linecap="round" opacity="0.20"/><line x1="992" y1="663.84" x2="992" y2="742.64" stroke="#3F332C" stroke-width="1.3" stroke-linecap="round" opacity="0.20"/><line x1="1066" y1="663.84" x2="1066" y2="742.64" stroke="#3F332C" stroke-width="1.3" stroke-linecap="round" opacity="0.20"/><line x1="1140" y1="663.84" x2="1140" y2="742.64" stroke="#3F332C" stroke-width="1.3" stroke-linecap="round" opacity="0.20"/><line x1="30" y1="744.64" x2="1170" y2="744.64" stroke="#3F332C" stroke-width="1.3" stroke-linecap="round" opacity="0.18"/><line x1="30" y1="746.64" x2="30" y2="825.44" stroke="#3F332C" stroke-width="1.3" stroke-linecap="round" opacity="0.20"/><line x1="67" y1="746.64" x2="67" y2="825.44" stroke="#3F332C" stroke-width="1.3" stroke-linecap="round" opacity="0.20"/><line x1="141" y1="746.64" x2="141" y2="825.44" stroke="#3F332C" stroke-width="1.3" stroke-linecap="round" opacity="0.20"/><line x1="215" y1="746.64" x2="215" y2="825.44" stroke="#3F332C" stroke-width="1.3" stroke-linecap="round" opacity="0.20"/><line x1="289" y1="746.64" x2="289" y2="825.44" stroke="#3F332C" stroke-width="1.3" stroke-linecap="round" opacity="0.20"/><line x1="363" y1="746.64" x2="363" y2="825.44" stroke="#3F332C" stroke-width="1.3" stroke-linecap="round" opacity="0.20"/><line x1="437" y1="746.64" x2="437" y2="825.44" stroke="#3F332C" stroke-width="1.3" stroke-linecap="round" opacity="0.20"/><line x1="511" y1="746.64" x2="511" y2="825.44" stroke="#3F332C" stroke-width="1.3" stroke-linecap="round" opacity="0.20"/><line x1="585" y1="746.64" x2="585" y2="825.44" stroke="#3F332C" stroke-width="1.3" stroke-linecap="round" opacity="0.20"/><line x1="659" y1="746.64" x2="659" y2="825.44" stroke="#3F332C" stroke-width="1.3" stroke-linecap="round" opacity="0.20"/><line x1="733" y1="746.64" x2="733" y2="825.44" stroke="#3F332C" stroke-width="1.3" stroke-linecap="round" opacity="0.20"/><line x1="807" y1="746.64" x2="807" y2="825.44" stroke="#3F332C" stroke-width="1.3" stroke-linecap="round" opacity="0.20"/><line x1="881" y1="746.64" x2="881" y2="825.44" stroke="#3F332C" stroke-width="1.3" stroke-linecap="round" opacity="0.20"/><line x1="955" y1="746.64" x2="955" y2="825.44" stroke="#3F332C" stroke-width="1.3" stroke-linecap="round" opacity="0.20"/><line x1="1029" y1="746.64" x2="1029" y2="825.44" stroke="#3F332C" stroke-width="1.3" stroke-linecap="round" opacity="0.20"/><line x1="1103" y1="746.64" x2="1103" y2="825.44" stroke="#3F332C" stroke-width="1.3" stroke-linecap="round" opacity="0.20"/><line x1="30" y1="827.44" x2="1170" y2="827.44" stroke="#3F332C" stroke-width="1.3" stroke-linecap="round" opacity="0.18"/><line x1="30" y1="829.44" x2="30" y2="842" stroke="#3F332C" stroke-width="1.3" stroke-linecap="round" opacity="0.20"/><line x1="104" y1="829.44" x2="104" y2="842" stroke="#3F332C" stroke-width="1.3" stroke-linecap="round" opacity="0.20"/><line x1="178" y1="829.44" x2="178" y2="842" stroke="#3F332C" stroke-width="1.3" stroke-linecap="round" opacity="0.20"/><line x1="252" y1="829.44" x2="252" y2="842" stroke="#3F332C" stroke-width="1.3" stroke-linecap="round" opacity="0.20"/><line x1="326" y1="829.44" x2="326" y2="842" stroke="#3F332C" stroke-width="1.3" stroke-linecap="round" opacity="0.20"/><line x1="400" y1="829.44" x2="400" y2="842" stroke="#3F332C" stroke-width="1.3" stroke-linecap="round" opacity="0.20"/><line x1="474" y1="829.44" x2="474" y2="842" stroke="#3F332C" stroke-width="1.3" stroke-linecap="round" opacity="0.20"/><line x1="548" y1="829.44" x2="548" y2="842" stroke="#3F332C" stroke-width="1.3" stroke-linecap="round" opacity="0.20"/><line x1="622" y1="829.44" x2="622" y2="842" stroke="#3F332C" stroke-width="1.3" stroke-linecap="round" opacity="0.20"/><line x1="696" y1="829.44" x2="696" y2="842" stroke="#3F332C" stroke-width="1.3" stroke-linecap="round" opacity="0.20"/><line x1="770" y1="829.44" x2="770" y2="842" stroke="#3F332C" stroke-width="1.3" stroke-linecap="round" opacity="0.20"/><line x1="844" y1="829.44" x2="844" y2="842" stroke="#3F332C" stroke-width="1.3" stroke-linecap="round" opacity="0.20"/><line x1="918" y1="829.44" x2="918" y2="842" stroke="#3F332C" stroke-width="1.3" stroke-linecap="round" opacity="0.20"/><line x1="992" y1="829.44" x2="992" y2="842" stroke="#3F332C" stroke-width="1.3" stroke-linecap="round" opacity="0.20"/><line x1="1066" y1="829.44" x2="1066" y2="842" stroke="#3F332C" stroke-width="1.3" stroke-linecap="round" opacity="0.20"/><line x1="1140" y1="829.44" x2="1140" y2="842" stroke="#3F332C" stroke-width="1.3" stroke-linecap="round" opacity="0.20"/><line x1="30" y1="844" x2="1170" y2="844" stroke="#3F332C" stroke-width="1.3" stroke-linecap="round" opacity="0.18"/><rect x="30" y="648.84" width="1140" height="15" rx="3" fill="#C7BBCD"/><line x1="30" y1="648.84" x2="1170" y2="648.84" stroke="#3F332C" stroke-width="2.2" stroke-linecap="round"/><line x1="30" y1="663.84" x2="1170" y2="663.84" stroke="#3F332C" stroke-width="2.2" stroke-linecap="round"/><rect x="30" y="16" width="1140" height="828" rx="18" fill="none" stroke="#3F332C" stroke-width="3"/><defs><radialGradient id="lg600" cx="50%" cy="50%"><stop offset="0%" stop-color="#FFD9A2" stop-opacity=".85"/><stop offset="60%" stop-color="#FFD9A2" stop-opacity=".30"/><stop offset="100%" stop-color="#FFD9A2" stop-opacity="0"/></radialGradient></defs><path d="M574 190 L327 661.84 L873 661.84 Z" fill="#FFD9A2" opacity="0.2"/><circle cx="600" cy="190" r="234" fill="url(#lg600)"/><ellipse cx="600" cy="677.84" rx="247" ry="22" fill="#FFD9A2" opacity="0.28"/><rect x="832" y="68" width="220" height="178" rx="10" fill="#E8DAC5"/><rect x="832" y="68" width="220" height="178" rx="10" fill="none" stroke="#3F332C" stroke-width="2.2" stroke-linejoin="round"/><rect x="842" y="78" width="200" height="158" rx="6" fill="#52657C"/><rect x="842" y="78" width="200" height="158" rx="6" fill="none" stroke="#3F332C" stroke-width="2.2" stroke-linejoin="round"/><circle cx="994" cy="125.4" r="20" fill="#FFE9C6" opacity="0.95"/><path d="M962.8 133.32 Q963.34 135.76 965.79 136.3 Q963.34 136.84 962.8 139.29 Q962.27 136.84 959.82 136.3 Q962.27 135.76 962.8 133.32 Z" fill="#FFE9C6" opacity="0.85"/><path d="M955.7 118.7 Q956.4 121.9 959.6 122.6 Q956.4 123.3 955.7 126.5 Q955 123.3 951.8 122.6 Q955 121.9 955.7 118.7 Z" fill="#FFE9C6" opacity="0.85"/><path d="M978.66 148.32 Q979.23 150.94 981.85 151.51 Q979.23 152.09 978.66 154.7 Q978.08 152.09 975.47 151.51 Q978.08 150.94 978.66 148.32 Z" fill="#FFE9C6" opacity="0.85"/><path d="M1031.45 135.2 Q1031.96 137.51 1034.28 138.02 Q1031.96 138.53 1031.45 140.84 Q1030.95 138.53 1028.63 138.02 Q1030.95 137.51 1031.45 135.2 Z" fill="#FFE9C6" opacity="0.85"/><path d="M981 223.68 Q981.61 226.47 984.4 227.08 Q981.61 227.69 981 230.48 Q980.39 227.69 977.6 227.08 Q980.39 226.47 981 223.68 Z" fill="#FFE9C6" opacity="0.85"/><path d="M1006.64 210.7 Q1007.16 213.06 1009.52 213.58 Q1007.16 214.09 1006.64 216.46 Q1006.12 214.09 1003.76 213.58 Q1006.12 213.06 1006.64 210.7 Z" fill="#FFE9C6" opacity="0.85"/><path d="M897.74 205.86 Q898.34 208.59 901.07 209.19 Q898.34 209.79 897.74 212.53 Q897.14 209.79 894.4 209.19 Q897.14 208.59 897.74 205.86 Z" fill="#FFE9C6" opacity="0.85"/><path d="M1000.68 132.22 Q1001.25 134.82 1003.86 135.39 Q1001.25 135.96 1000.68 138.57 Q1000.11 135.96 997.51 135.39 Q1000.11 134.82 1000.68 132.22 Z" fill="#FFE9C6" opacity="0.85"/><path d="M1031.77 136.2 Q1032.48 139.46 1035.74 140.18 Q1032.48 140.89 1031.77 144.15 Q1031.05 140.89 1027.79 140.18 Q1031.05 139.46 1031.77 136.2 Z" fill="#FFE9C6" opacity="0.85"/><line x1="942" y1="78" x2="942" y2="236" stroke="#3F332C" stroke-width="2.2" stroke-linecap="round"/><line x1="842" y1="157" x2="1042" y2="157" stroke="#3F332C" stroke-width="2.2" stroke-linecap="round"/><rect x="842" y="78" width="200" height="158" rx="6" fill="none" stroke="#3F332C" stroke-width="2.8"/><rect x="824" y="244" width="236" height="14" rx="5" fill="#E8DAC5"/><rect x="824" y="244" width="236" height="14" rx="5" fill="none" stroke="#3F332C" stroke-width="2.2" stroke-linejoin="round"/><rect x="362.2" y="77" width="88" height="70" rx="5" fill="#FBF4E8"/><rect x="362.2" y="77" width="88" height="70" rx="5" fill="none" stroke="#3F332C" stroke-width="2.2" stroke-linejoin="round"/><rect x="370.2" y="85" width="72" height="54" rx="3" fill="#C2606C"/><path d="M372.2 135 q26.4 -28 68 0" fill="#FBF4E8" opacity="0.5"/><rect x="495.6" y="97" width="72" height="58" rx="5" fill="#FBF4E8"/><rect x="495.6" y="97" width="72" height="58" rx="5" fill="none" stroke="#3F332C" stroke-width="2.2" stroke-linejoin="round"/><rect x="503.6" y="105" width="56" height="42" rx="3" fill="#F3C97C"/><path d="M505.6 143 q21.6 -23.2 52 0" fill="#FBF4E8" opacity="0.5"/><rect x="653.37" y="185.61" width="27.37" height="30.39" rx="5" fill="#7C5C7A"/><rect x="653.37" y="185.61" width="27.37" height="30.39" rx="5" fill="none" stroke="#3F332C" stroke-width="2.2" stroke-linejoin="round"/><rect x="651.37" y="178.61" width="31.37" height="8" rx="3" fill="#BE7A45"/><rect x="651.37" y="178.61" width="31.37" height="8" rx="3" fill="none" stroke="#3F332C" stroke-width="1.4"/><rect x="702.48" y="180.9" width="22.13" height="35.1" rx="5" fill="#F3C97C"/><rect x="702.48" y="180.9" width="22.13" height="35.1" rx="5" fill="none" stroke="#3F332C" stroke-width="2.2" stroke-linejoin="round"/><rect x="700.48" y="173.9" width="26.13" height="8" rx="3" fill="#BE7A45"/><rect x="700.48" y="173.9" width="26.13" height="8" rx="3" fill="none" stroke="#3F332C" stroke-width="1.4"/><rect x="747.56" y="183.63" width="24.98" height="32.37" rx="5" fill="#7C5C7A"/><rect x="747.56" y="183.63" width="24.98" height="32.37" rx="5" fill="none" stroke="#3F332C" stroke-width="2.2" stroke-linejoin="round"/><rect x="745.56" y="176.63" width="28.98" height="8" rx="3" fill="#BE7A45"/><rect x="745.56" y="176.63" width="28.98" height="8" rx="3" fill="none" stroke="#3F332C" stroke-width="1.4"/><rect x="794.94" y="170.77" width="23.22" height="45.23" rx="5" fill="#C2606C"/><rect x="794.94" y="170.77" width="23.22" height="45.23" rx="5" fill="none" stroke="#3F332C" stroke-width="2.2" stroke-linejoin="round"/><rect x="792.94" y="163.77" width="27.22" height="8" rx="3" fill="#BE7A45"/><rect x="792.94" y="163.77" width="27.22" height="8" rx="3" fill="none" stroke="#3F332C" stroke-width="1.4"/><rect x="635.8" y="216" width="202" height="11" rx="4" fill="#BE7A45"/><rect x="635.8" y="216" width="202" height="11" rx="4" fill="none" stroke="#3F332C" stroke-width="2.2" stroke-linejoin="round"/><rect x="653.8" y="227" width="8" height="16" rx="3" fill="#BE7A45"/><rect x="653.8" y="227" width="8" height="16" rx="3" fill="none" stroke="#3F332C" stroke-width="1.4"/><rect x="811.8" y="227" width="8" height="16" rx="3" fill="#BE7A45"/><rect x="811.8" y="227" width="8" height="16" rx="3" fill="none" stroke="#3F332C" stroke-width="1.4"/><ellipse cx="622.8" cy="738.35" rx="220" ry="37.4" fill="#C2606C"/><ellipse cx="622.8" cy="738.35" rx="220" ry="37.4" fill="none" stroke="#3F332C" stroke-width="2.2"/><ellipse cx="622.8" cy="738.35" rx="169.23" ry="29.04" fill="none" stroke="#3F332C" stroke-width="1.4" opacity="0.5"/><ellipse cx="622.8" cy="738.35" rx="104.76" ry="18.92" fill="#FBF4E8" opacity="0.4"/><ellipse cx="223.8" cy="667.84" rx="160" ry="24" fill="#3F332C" opacity="0.13"/><rect x="63.8" y="581.84" width="320" height="80" rx="8" fill="#7C5C7A"/><rect x="63.8" y="581.84" width="320" height="80" rx="8" fill="none" stroke="#3F332C" stroke-width="2.2" stroke-linejoin="round"/><rect x="55.8" y="551.84" width="26" height="110" rx="8" fill="#7C5C7A"/><rect x="55.8" y="551.84" width="26" height="110" rx="8" fill="none" stroke="#3F332C" stroke-width="2.2" stroke-linejoin="round"/><rect x="365.8" y="577.84" width="26" height="84" rx="8" fill="#7C5C7A"/><rect x="365.8" y="577.84" width="26" height="84" rx="8" fill="none" stroke="#3F332C" stroke-width="2.2" stroke-linejoin="round"/><rect x="79.8" y="585.84" width="280" height="34" rx="10" fill="#6E9A99"/><rect x="79.8" y="585.84" width="280" height="34" rx="10" fill="none" stroke="#3F332C" stroke-width="2.2" stroke-linejoin="round"/><rect x="87.8" y="573.84" width="84" height="30" rx="12" fill="#FBF4E8"/><rect x="87.8" y="573.84" width="84" height="30" rx="12" fill="none" stroke="#3F332C" stroke-width="2.2" stroke-linejoin="round"/><ellipse cx="1067.4" cy="667.84" rx="92.4" ry="13.86" fill="#3F332C" opacity="0.13"/><rect x="983.4" y="411.84" width="168" height="250" rx="7" fill="#BE7A45"/><rect x="983.4" y="411.84" width="168" height="250" rx="7" fill="none" stroke="#3F332C" stroke-width="2.2" stroke-linejoin="round"/><rect x="995.4" y="426.11" width="14.97" height="43.13" rx="2" fill="#EBA9AB"/><rect x="1012.87" y="439.85" width="13.52" height="43.3" rx="2" fill="#6E9A99"/><rect x="1028.89" y="435.41" width="11.44" height="40.39" rx="2" fill="#F3C97C"/><rect x="1042.83" y="428.33" width="12.21" height="42.88" rx="2" fill="#6E9A99"/><rect x="1057.54" y="437.14" width="19.24" height="30.94" rx="2" fill="#93AC8C"/><rect x="1079.29" y="433.73" width="18.33" height="30.38" rx="2" fill="#7C5C7A"/><rect x="1100.12" y="440.55" width="13.87" height="27.67" rx="2" fill="#F3C97C"/><rect x="1116.49" y="431.23" width="18.14" height="30.69" rx="2" fill="#EBA9AB"/><rect x="989.4" y="469.34" width="156" height="8" rx="3" fill="#DDA061"/><rect x="989.4" y="469.34" width="156" height="8" rx="3" fill="none" stroke="#3F332C" stroke-width="1.4" stroke-linejoin="round"/><rect x="995.4" y="488.01" width="14.02" height="44.65" rx="2" fill="#EBA9AB"/><rect x="1011.92" y="495.61" width="19.48" height="29.69" rx="2" fill="#F3C97C"/><rect x="1033.9" y="493.3" width="15.56" height="39.01" rx="2" fill="#6E9A99"/><rect x="1051.96" y="498.71" width="19.24" height="41.39" rx="2" fill="#F3C97C"/><rect x="1073.7" y="487.98" width="18.6" height="38.92" rx="2" fill="#6E9A99"/><rect x="1094.8" y="491.76" width="12.16" height="41.57" rx="2" fill="#EBA9AB"/><rect x="1109.46" y="490.93" width="14.63" height="33.84" rx="2" fill="#7C5C7A"/><rect x="1126.59" y="482.22" width="13.54" height="32.83" rx="2" fill="#7C5C7A"/><rect x="989.4" y="526.84" width="156" height="8" rx="3" fill="#DDA061"/><rect x="989.4" y="526.84" width="156" height="8" rx="3" fill="none" stroke="#3F332C" stroke-width="1.4" stroke-linejoin="round"/><rect x="995.4" y="547.63" width="11.05" height="32.02" rx="2" fill="#93AC8C"/><rect x="1008.95" y="545.27" width="11.14" height="43.16" rx="2" fill="#93AC8C"/><rect x="1022.58" y="547.48" width="18.33" height="33.42" rx="2" fill="#F3C97C"/><rect x="1043.41" y="553.49" width="17.73" height="39.42" rx="2" fill="#C2606C"/><rect x="1063.64" y="553.55" width="19.22" height="44.74" rx="2" fill="#93AC8C"/><rect x="1085.37" y="550.85" width="19.45" height="39.41" rx="2" fill="#EBA9AB"/><rect x="1107.32" y="555.11" width="18.97" height="33.88" rx="2" fill="#6E9A99"/><rect x="1128.79" y="551.77" width="19.13" height="41.07" rx="2" fill="#7C5C7A"/><rect x="989.4" y="584.34" width="156" height="8" rx="3" fill="#DDA061"/><rect x="989.4" y="584.34" width="156" height="8" rx="3" fill="none" stroke="#3F332C" stroke-width="1.4" stroke-linejoin="round"/><rect x="995.4" y="605.76" width="15.79" height="37" rx="2" fill="#C2606C"/><rect x="1013.69" y="602.94" width="18.85" height="44.79" rx="2" fill="#7C5C7A"/><rect x="1035.04" y="604.58" width="14.82" height="30.63" rx="2" fill="#7C5C7A"/><rect x="1052.35" y="601.11" width="13.15" height="32.22" rx="2" fill="#7C5C7A"/><rect x="1068" y="605.83" width="16.77" height="28.36" rx="2" fill="#6E9A99"/><rect x="1087.27" y="609.54" width="11.16" height="41.8" rx="2" fill="#EBA9AB"/><rect x="1100.92" y="609.61" width="16.21" height="44.78" rx="2" fill="#93AC8C"/><rect x="1119.64" y="606.35" width="14.98" height="41.16" rx="2" fill="#EBA9AB"/><rect x="989.4" y="641.84" width="156" height="8" rx="3" fill="#DDA061"/><rect x="989.4" y="641.84" width="156" height="8" rx="3" fill="none" stroke="#3F332C" stroke-width="1.4" stroke-linejoin="round"/><rect x="983.4" y="411.84" width="168" height="250" rx="7" fill="none"/><rect x="983.4" y="411.84" width="168" height="250" rx="7" fill="none" stroke="#3F332C" stroke-width="2.2" stroke-linejoin="round"/><ellipse cx="782.4" cy="667.84" rx="78.85" ry="11.83" fill="#3F332C" opacity="0.13"/><rect x="709.4" y="579.84" width="16" height="82" rx="6" fill="#7C5C7A"/><rect x="709.4" y="579.84" width="16" height="82" rx="6" fill="none" stroke="#3F332C" stroke-width="2.2" stroke-linejoin="round"/><rect x="839.4" y="579.84" width="16" height="82" rx="6" fill="#7C5C7A"/><rect x="839.4" y="579.84" width="16" height="82" rx="6" fill="none" stroke="#3F332C" stroke-width="2.2" stroke-linejoin="round"/><rect x="699.4" y="563.84" width="166" height="20" rx="8" fill="#7C5C7A"/><rect x="699.4" y="563.84" width="166" height="20" rx="8" fill="none" stroke="#3F332C" stroke-width="2.2" stroke-linejoin="round"/><line x1="600" y1="16" x2="600" y2="146" stroke="#3F332C" stroke-width="2" stroke-linecap="round"/><path d="M546 186 Q554 142 600 138 L600 138 Q646 142 654 186 Z" fill="#F3C97C"/><path d="M546 186 Q554 142 600 138 L600 138 Q646 142 654 186 Z" fill="none" stroke="#3F332C" stroke-width="2.2" stroke-linejoin="round" stroke-linecap="round"/><ellipse cx="600" cy="186" rx="54" ry="11" fill="#FFE9C6"/><ellipse cx="600" cy="186" rx="54" ry="11" fill="none" stroke="#3F332C" stroke-width="2.2"/><circle cx="600" cy="192" r="13" fill="#FFD9A2"/></svg>