<svg xmlns="http://www.w3.org/2000/svg" viewBox="-165 -280 330 290">
<g class="prop-bowl">
  <!-- whisk (behind rim) -->
  <g transform="translate(-10 -40) rotate(24 40 -120)">
    <rect x="30" y="-250" width="20" height="96" rx="10" fill="#F0604D"/>
    <rect x="30" y="-250" width="7" height="96" rx="3.5" fill="#F98A77"/>
    <g fill="none" stroke="#8C95B0" stroke-width="6">
      <path d="M40 -156 C-10 -120 0 -40 40 -40 C80 -40 90 -120 40 -156Z"/>
      <path d="M40 -156 C14 -120 20 -44 40 -44 C60 -44 66 -120 40 -156Z"/>
      <path d="M40 -156 L40 -44"/>
    </g>
  </g>
  <ellipse cx="0" cy="-122" rx="150" ry="38" fill="#F0B544"/>
  <ellipse cx="0" cy="-116" rx="136" ry="28" fill="#FFF0C8"/>
  <path d="M-60 -122 Q-20 -134 30 -120" stroke="#fff" stroke-width="6" fill="none" stroke-linecap="round" opacity=".8"/>
  <path fill="#9FDBF7" d="M-150 -122 Q-148 -30 -70 -8 L-60 0 L60 0 L70 -8 Q148 -30 150 -122 Q150 -84 0 -84 Q-150 -84 -150 -122Z"/>
  <path fill="#7CC4EA" d="M150 -122 Q148 -30 70 -8 L60 0 L40 0 Q120 -40 136 -104 Q150 -110 150 -122Z"/>
  <path fill="#C9ECFB" d="M-128 -96 Q-120 -50 -84 -30 Q-110 -60 -112 -92Z"/>
  <path fill="#fff" d="M-146 -86 Q0 -60 146 -86 L140 -66 Q0 -40 -140 -66Z" opacity=".9"/>
  <g fill="#F0604D"><circle cx="-90" cy="-72" r="7"/><circle cx="-45" cy="-64" r="7"/><circle cx="0" cy="-62" r="7"/><circle cx="45" cy="-64" r="7"/><circle cx="90" cy="-72" r="7"/></g>
  <ellipse cx="0" cy="-2" rx="64" ry="8" fill="#7CC4EA"/>
</g></svg>
